<svg width="50" height="50" viewBox="0 0 50 50" fill="none" xmlns="http://www.w3.org/2000/svg">
<path d="M47.6562 28.125H8.59375C8.38655 28.125 8.18784 28.2073 8.04132 28.3538C7.89481 28.5003 7.8125 28.699 7.8125 28.9062V36.7188H2.34375C2.13655 36.7188 1.93784 36.8011 1.79132 36.9476C1.64481 37.0941 1.5625 37.2928 1.5625 37.5V47.6562C1.5625 47.8635 1.64481 48.0622 1.79132 48.2087C1.93784 48.3552 2.13655 48.4375 2.34375 48.4375H8.59375C8.80095 48.4375 8.99966 48.3552 9.14618 48.2087C9.29269 48.0622 9.375 47.8635 9.375 47.6562V46.875H25.6854C26.3916 46.8746 27.0866 46.6974 27.7068 46.3596L35.3555 42.1875H47.6562C47.8634 42.1875 48.0622 42.1052 48.2087 41.9587C48.3552 41.8122 48.4375 41.6135 48.4375 41.4062V28.9062C48.4375 28.699 48.3552 28.5003 48.2087 28.3538C48.0622 28.2073 47.8634 28.125 47.6562 28.125ZM7.8125 46.875H3.125V38.2812H7.8125V46.875ZM31.8119 29.6875L31.4213 31.25H26.3912L26.0006 29.6875H31.8119ZM26.7369 35.9375H31.8119L31.4213 37.5H26.3912L26.1777 36.6459L26.2134 36.6103C26.415 36.4085 26.5909 36.1825 26.7369 35.9375ZM9.375 29.6875H24.39L24.6841 30.8637C24.1695 30.723 23.6292 30.7039 23.106 30.8078C22.5827 30.9117 22.0908 31.1357 21.6689 31.4623L17.9239 34.375H9.375V29.6875ZM9.375 35.9375H12.7155C12.2096 36.2966 11.789 36.7628 11.4837 37.3029C11.1783 37.843 10.9958 38.4438 10.9491 39.0625H9.375V35.9375ZM26.9584 44.9879C26.5678 45.2006 26.1301 45.3122 25.6854 45.3125H9.375V40.625H11.2526C11.5833 40.6246 11.9004 40.4931 12.1342 40.2592C12.3681 40.0254 12.4996 39.7083 12.5 39.3776C12.5008 38.6727 12.7812 37.9969 13.2797 37.4984C13.7781 36.9999 14.454 36.7196 15.1589 36.7188H17.0794C17.3231 36.7183 17.5599 36.6371 17.7525 36.4878L22.6282 32.6953C23.0053 32.4017 23.4802 32.263 23.956 32.3074C24.4319 32.3518 24.8729 32.5759 25.1891 32.9342C25.5054 33.2925 25.6732 33.7579 25.6583 34.2355C25.6433 34.7132 25.4468 35.1672 25.1087 35.505L20.298 40.3156C20.1446 40.4689 20.0402 40.6643 19.9978 40.877C19.9555 41.0897 19.9771 41.3102 20.0601 41.5106C20.1431 41.711 20.2837 41.8823 20.464 42.0027C20.6443 42.1232 20.8564 42.1875 21.0732 42.1875H32.0924L26.9584 44.9879ZM46.875 40.625H22.1986L24.8893 37.9344L25.0233 38.4707C25.0656 38.6397 25.1631 38.7898 25.3005 38.897C25.4378 39.0042 25.607 39.0625 25.7812 39.0625H32.0312C32.2055 39.0625 32.3747 39.0042 32.512 38.897C32.6494 38.7898 32.7469 38.6397 32.7892 38.4707L33.4225 35.9375H46.875V40.625ZM46.875 34.375H27.2168C27.2476 33.8396 27.1525 33.3045 26.9392 32.8125H32.0312C32.2055 32.8125 32.3747 32.7542 32.512 32.647C32.6494 32.5398 32.7469 32.3897 32.7892 32.2207L33.4225 29.6875H46.875V34.375Z" fill="black"/>
<path d="M19.5312 14.0625C19.0677 14.0625 18.6146 14.2 18.2291 14.4575C17.8437 14.715 17.5433 15.0811 17.3659 15.5093C17.1885 15.9376 17.1421 16.4088 17.2325 16.8635C17.323 17.3181 17.5462 17.7358 17.874 18.0635C18.2017 18.3913 18.6194 18.6145 19.074 18.705C19.5286 18.7954 19.9999 18.749 20.4282 18.5716C20.8564 18.3942 21.2225 18.0938 21.48 17.7084C21.7375 17.3229 21.875 16.8698 21.875 16.4062C21.8743 15.7849 21.6271 15.1891 21.1878 14.7497C20.7484 14.3104 20.1526 14.0632 19.5312 14.0625ZM19.5312 17.1875C19.3767 17.1875 19.2257 17.1417 19.0972 17.0558C18.9687 16.97 18.8686 16.848 18.8095 16.7052C18.7503 16.5625 18.7349 16.4054 18.765 16.2538C18.7952 16.1023 18.8696 15.9631 18.9788 15.8538C19.0881 15.7446 19.2273 15.6702 19.3788 15.64C19.5304 15.6099 19.6875 15.6253 19.8302 15.6845C19.973 15.7436 20.095 15.8437 20.1808 15.9722C20.2667 16.1007 20.3125 16.2517 20.3125 16.4062C20.3123 16.6134 20.2299 16.812 20.0834 16.9584C19.937 17.1049 19.7384 17.1873 19.5312 17.1875Z" fill="black"/>
<path d="M47.6562 1.5625H41.4062C41.1991 1.5625 41.0003 1.64481 40.8538 1.79132C40.7073 1.93784 40.625 2.13655 40.625 2.34375V3.125H24.3146C23.6084 3.12544 22.9134 3.30263 22.2932 3.64043L14.6445 7.8125H4.6875C4.4803 7.8125 4.28159 7.89481 4.13507 8.04132C3.98856 8.18784 3.90625 8.38655 3.90625 8.59375V24.2188C3.90625 24.426 3.98856 24.6247 4.13507 24.7712C4.28159 24.9177 4.4803 25 4.6875 25H34.375C34.5822 25 34.7809 24.9177 34.9274 24.7712C35.0739 24.6247 35.1562 24.426 35.1562 24.2188V14.8309C36.1635 14.7543 37.1101 14.3196 37.8245 13.6054C38.5389 12.8912 38.974 11.9448 39.0509 10.9375H40.625V12.5C40.625 12.7072 40.7073 12.9059 40.8538 13.0524C41.0003 13.1989 41.1991 13.2812 41.4062 13.2812H47.6562C47.8634 13.2812 48.0622 13.1989 48.2087 13.0524C48.3552 12.9059 48.4375 12.7072 48.4375 12.5V2.34375C48.4375 2.13655 48.3552 1.93784 48.2087 1.79132C48.0622 1.64481 47.8634 1.5625 47.6562 1.5625ZM33.5938 23.4375H5.46875V9.375H27.8014L26.2389 10.9375H9.375C9.1678 10.9375 8.96909 11.0198 8.82257 11.1663C8.67606 11.3128 8.59375 11.5115 8.59375 11.7188V12.5H7.8125C7.6053 12.5 7.40659 12.5823 7.26007 12.7288C7.11356 12.8753 7.03125 13.074 7.03125 13.2812V19.5312C7.03125 19.7385 7.11356 19.9372 7.26007 20.0837C7.40659 20.2302 7.6053 20.3125 7.8125 20.3125H8.59375V21.0938C8.59375 21.301 8.67606 21.4997 8.82257 21.6462C8.96909 21.7927 9.1678 21.875 9.375 21.875H29.6875C29.8947 21.875 30.0934 21.7927 30.2399 21.6462C30.3864 21.4997 30.4688 21.301 30.4688 21.0938V20.3125H31.25C31.4572 20.3125 31.6559 20.2302 31.8024 20.0837C31.9489 19.9372 32.0312 19.7385 32.0312 19.5312V15.6599L33.0806 14.8438H33.5938V23.4375ZM23.5328 17.9714C24.0997 18.6745 24.9194 19.1276 25.8164 19.2335C26.7133 19.3394 27.6161 19.0896 28.3311 18.5378L30.4688 16.875V18.75H29.6875C29.4803 18.75 29.2816 18.8323 29.1351 18.9788C28.9886 19.1253 28.9062 19.324 28.9062 19.5312V20.3125H10.1562V19.5312C10.1562 19.324 10.0739 19.1253 9.92743 18.9788C9.78091 18.8323 9.5822 18.75 9.375 18.75H8.59375V14.0625H9.375C9.5822 14.0625 9.78091 13.9802 9.92743 13.8337C10.0739 13.6872 10.1562 13.4885 10.1562 13.2812V12.5H24.6764L23.7866 13.3897C23.1873 13.988 22.8299 14.7865 22.7831 15.632C22.7362 16.4775 23.0032 17.3106 23.5328 17.9714ZM40.625 9.375H38.7474C38.4167 9.37539 38.0996 9.50693 37.8658 9.74077C37.6319 9.97461 37.5004 10.2917 37.5 10.6224C37.4992 11.3273 37.2188 12.0031 36.7203 12.5016C36.2219 13.0001 35.546 13.2804 34.8411 13.2812H32.9206C32.6769 13.2817 32.4401 13.3629 32.2475 13.5122L27.3718 17.3047C26.9947 17.5983 26.5198 17.737 26.044 17.6926C25.5681 17.6482 25.1271 17.4241 24.8109 17.0658C24.4946 16.7075 24.3268 16.2421 24.3417 15.7645C24.3567 15.2868 24.5532 14.8328 24.8913 14.495L29.702 9.68437C29.8554 9.53106 29.9598 9.33569 30.0022 9.12298C30.0445 8.91027 30.0229 8.68977 29.9399 8.48939C29.8569 8.28901 29.7163 8.11774 29.536 7.99725C29.3557 7.87676 29.1436 7.81247 28.9268 7.8125H17.9076L23.0416 5.01211C23.4322 4.79938 23.8699 4.68779 24.3146 4.6875H40.625V9.375ZM46.875 11.7188H42.1875V3.125H46.875V11.7188Z" fill="black"/>
<circle cx="15" cy="25" r="15" fill="#056DD0" fill-opacity="0.2"/>
</svg>
