<svg width="63" height="55" viewBox="0 0 63 55" fill="none" xmlns="http://www.w3.org/2000/svg">
<circle cx="15" cy="30.187" r="15" fill="#056DD0" fill-opacity="0.2"/>
<path d="M59.4998 24.5097L58.205 18.8914C58.559 18.8098 58.8246 18.4691 58.8246 18.061V17.1551C58.8246 15.1883 57.3495 13.5882 55.5365 13.5882H49.6389V11.7197C49.6389 10.7519 48.9131 9.96457 48.0209 9.96457H17.9582C17.066 9.96457 16.3402 10.7519 16.3402 11.7197V27.1197C16.3402 27.5887 16.6907 27.969 17.1231 27.969C17.5555 27.969 17.9061 27.5888 17.9061 27.1197V11.7197C17.9061 11.6885 17.9294 11.6632 17.9582 11.6632H48.0208C48.0496 11.6632 48.0729 11.6885 48.0729 11.7197V27.1199C48.0729 27.5889 48.4234 27.9692 48.8559 27.9692C49.2882 27.9692 49.6388 27.589 49.6388 27.1199V26.1572H58.874C58.8748 26.1572 58.8754 26.1574 58.8761 26.1574C58.8769 26.1574 58.8775 26.1573 58.8782 26.1573C60.0146 26.1581 60.9796 26.9673 61.311 28.0822H58.8767C58.4443 28.0822 58.0938 28.4624 58.0938 28.9315V30.7433C58.0938 32.2106 59.1941 33.4043 60.5468 33.4043H61.4341V37.141H59.387C58.7145 35.0346 56.8687 33.5174 54.7013 33.5174C52.5338 33.5174 50.6879 35.0346 50.0155 37.141H49.6386V30.7431C49.6386 30.2742 49.2881 29.8939 48.8557 29.8939C48.4233 29.8939 48.0728 30.2741 48.0728 30.7431V37.1408H31.8298C31.1573 35.0344 29.3115 33.5172 27.144 33.5172C24.9766 33.5172 23.1307 35.0344 22.4583 37.1408H17.9582C17.9294 37.1408 17.9061 37.1154 17.9061 37.0842V35.2158H21.2985C21.7309 35.2158 22.0814 34.8356 22.0814 34.3665C22.0814 33.8974 21.731 33.5172 21.2985 33.5172H13.7829C13.3506 33.5172 13 33.8974 13 34.3665C13 34.8356 13.3505 35.2158 13.7829 35.2158H16.3403V37.0842C16.3403 38.052 17.0661 38.8393 17.9583 38.8393H22.1872C22.187 38.8582 22.1858 38.8769 22.1858 38.8959C22.1858 41.8617 24.4102 44.2745 27.144 44.2745C29.8779 44.2745 32.1022 41.8617 32.1022 38.8959C32.1022 38.8768 32.1011 38.8582 32.1009 38.8393H49.7444C49.7442 38.8582 49.7431 38.8769 49.7431 38.8959C49.7431 41.8617 51.9674 44.2745 54.7013 44.2745C57.4352 44.2745 59.6595 41.8617 59.6595 38.8959C59.6595 38.8768 59.6583 38.8582 59.6581 38.8393H62.217C62.6493 38.8393 62.9999 38.4591 62.9999 37.99V28.9313C63 26.6948 61.4788 24.8366 59.4998 24.5097ZM49.6389 15.2867H55.5365C56.4862 15.2867 57.2589 16.1249 57.2589 17.1551V17.2117H49.6389V15.2867ZM49.6389 24.4587V18.9102H56.5954L57.8741 24.4587H49.6389ZM27.144 42.5762C25.2734 42.5762 23.7516 40.9254 23.7516 38.8961C23.7516 36.8668 25.2734 35.216 27.144 35.216C29.0146 35.216 30.5365 36.8668 30.5365 38.8961C30.5365 40.9254 29.0146 42.5762 27.144 42.5762ZM54.7015 42.5762C52.8309 42.5762 51.309 40.9254 51.309 38.8961C51.309 36.8668 52.8309 35.216 54.7015 35.216C56.5721 35.216 58.0939 36.8668 58.0939 38.8961C58.0939 40.9254 56.5721 42.5762 54.7015 42.5762ZM61.4343 31.7057H60.547C60.0577 31.7057 59.6597 31.2739 59.6597 30.7431V29.7806H61.4342V31.7057H61.4343Z" fill="black"/>
<path d="M27.1441 37.141C26.2519 37.141 25.5261 37.9283 25.5261 38.8961C25.5261 39.864 26.2519 40.6513 27.1441 40.6513C28.0363 40.6513 28.7621 39.864 28.7621 38.8961C28.7621 37.9283 28.0363 37.141 27.1441 37.141Z" fill="black"/>
<path d="M54.7013 37.141C53.8092 37.141 53.0834 37.9283 53.0834 38.8961C53.0834 39.864 53.8092 40.6513 54.7013 40.6513C55.5935 40.6513 56.3193 39.864 56.3193 38.8961C56.3193 37.9283 55.5935 37.141 54.7013 37.141Z" fill="black"/>
<path d="M45.5155 33.5175H33.8245C33.3922 33.5175 33.0416 33.8978 33.0416 34.3668C33.0416 34.8359 33.3921 35.2161 33.8245 35.2161H45.5155C45.9479 35.2161 46.2984 34.8359 46.2984 34.3668C46.2984 33.8978 45.948 33.5175 45.5155 33.5175Z" fill="black"/>
<path d="M25.4738 29.894H15.453C15.0206 29.894 14.67 30.2742 14.67 30.7433C14.67 31.2124 15.0205 31.5926 15.453 31.5926H25.4738C25.9062 31.5926 26.2568 31.2124 26.2568 30.7433C26.2568 30.2742 25.9062 29.894 25.4738 29.894Z" fill="black"/>
<path d="M40.2238 18.3662C39.9181 18.0346 39.4223 18.0346 39.1166 18.3663L32.1545 25.9186L28.5327 21.9897C28.227 21.6581 27.7313 21.6581 27.4256 21.9897C27.1198 22.3214 27.1198 22.8591 27.4256 23.1907L31.601 27.7202C31.7538 27.8861 31.9542 27.9689 32.1545 27.9689C32.3548 27.9689 32.5553 27.8861 32.708 27.7202L40.2237 19.5673C40.5294 19.2355 40.5294 18.6979 40.2238 18.3662Z" fill="black"/>
</svg>
