<svg width="56" height="55" viewBox="0 0 56 55" fill="none" xmlns="http://www.w3.org/2000/svg">
<g clip-path="url(#clip0)">
<path d="M25.2709 19.2281H6.52249C6.11799 19.2281 5.79016 19.5839 5.79016 20.0226C5.79016 20.4614 6.11799 20.817 6.52249 20.817H25.271C25.6755 20.817 26.0033 20.4613 26.0033 20.0226C26.0033 19.5839 25.6755 19.2281 25.2709 19.2281Z" fill="black"/>
<path d="M25.2709 24.8105H6.52249C6.11799 24.8105 5.79016 25.1663 5.79016 25.6049C5.79016 26.0436 6.11799 26.3994 6.52249 26.3994H25.271C25.6755 26.3994 26.0033 26.0436 26.0033 25.6049C26.0033 25.1663 25.6755 24.8105 25.2709 24.8105Z" fill="black"/>
<path d="M25.2709 30.3929H6.52249C6.11799 30.3929 5.79016 30.7486 5.79016 31.1873C5.79016 31.626 6.11799 31.9817 6.52249 31.9817H25.271C25.6755 31.9817 26.0033 31.626 26.0033 31.1873C26.0033 30.7486 25.6755 30.3929 25.2709 30.3929Z" fill="black"/>
<path d="M26.0033 36.7698C26.0033 36.331 25.6755 35.9754 25.271 35.9754H6.52249C6.11799 35.9754 5.79016 36.3311 5.79016 36.7698C5.79016 37.2085 6.11799 37.5642 6.52249 37.5642H25.271C25.6755 37.5642 26.0033 37.2086 26.0033 36.7698Z" fill="black"/>
<path d="M6.52249 44.1565C6.11799 44.1565 5.79016 44.5123 5.79016 44.9509C5.79016 45.3896 6.11799 45.7454 6.52249 45.7454H15.9207C16.3252 45.7454 16.6531 45.3896 16.6531 44.9509C16.6531 44.5123 16.3252 44.1565 15.9207 44.1565H6.52249Z" fill="black"/>
<path d="M33.7105 9.83653V7.25867C33.7105 6.27663 32.974 5.47766 32.0687 5.47766H17.0328C16.1275 5.47766 15.3911 6.27663 15.3911 7.25867V9.83653C15.3911 10.8186 16.1275 11.6174 17.0328 11.6174H18.3025C18.707 11.6174 19.0349 11.2617 19.0349 10.823C19.0349 10.3842 18.707 10.0286 18.3025 10.0286H17.0328C16.9353 10.0286 16.8559 9.94246 16.8559 9.83663V7.25867C16.8559 7.15284 16.9353 7.0666 17.0328 7.0666H32.0687C32.1663 7.0666 32.2457 7.15273 32.2457 7.25867V9.83653C32.2457 9.94236 32.1663 10.0285 32.0687 10.0285H21.7264C21.3219 10.0285 20.994 10.3842 20.994 10.8229C20.994 11.2617 21.3219 11.6173 21.7264 11.6173H32.0688C32.974 11.6175 33.7105 10.8186 33.7105 9.83653Z" fill="black"/>
<path d="M39.1864 48.4443C38.7819 48.4443 38.4541 48.8001 38.4541 49.2388V50.3086C38.4541 51.5999 37.4856 52.6506 36.2951 52.6506H3.89648C2.70615 52.6506 1.7376 51.6 1.7376 50.3086V12.1221C1.7376 11.9502 1.75615 11.7815 1.78926 11.6174H8.45752C9.84971 11.6174 10.9823 10.3888 10.9823 8.87854V1.64498C11.1336 1.60907 11.289 1.58894 11.4475 1.58894H36.295C37.4854 1.58894 38.454 2.63951 38.454 3.93088V14.5078C38.454 14.9466 38.7818 15.3022 39.1863 15.3022C39.5908 15.3022 39.9186 14.9465 39.9186 14.5078V3.93077C39.9187 1.76342 38.2932 0 36.2951 0H11.4476C10.4797 0 9.56963 0.408915 8.88525 1.15132L1.33418 9.34265C0.649805 10.0851 0.272949 11.0722 0.272949 12.1222V50.3087C0.272949 52.4762 1.89844 54.2395 3.89648 54.2395H36.2951C38.2932 54.2395 39.9187 52.4761 39.9187 50.3087V49.2389C39.9187 48.8001 39.5909 48.4443 39.1864 48.4443ZM9.51768 2.7124V8.87854C9.51768 9.51268 9.04209 10.0286 8.45752 10.0286H2.77334L9.51768 2.7124Z" fill="black"/>
<path d="M49.2171 28.3909C49.7311 27.5723 49.8641 26.5626 49.582 25.6206C49.2999 24.6786 48.6451 23.9466 47.7857 23.6123C47.2156 23.3904 46.8352 22.8226 46.8171 22.1658C46.7894 21.1758 46.3499 20.2741 45.6111 19.6919C44.8725 19.1098 43.946 18.9351 43.0698 19.2124C42.488 19.3965 41.873 19.1796 41.5023 18.66C40.9436 17.8766 40.0995 17.4273 39.1864 17.4273C38.2734 17.4273 37.4292 17.8766 36.8704 18.66C36.4997 19.1797 35.8843 19.3963 35.303 19.2124C34.4267 18.9349 33.5003 19.1098 32.7615 19.6919C32.0228 20.2741 31.5835 21.1757 31.5557 22.1657C31.5375 22.8225 31.1572 23.3902 30.587 23.6122C29.7276 23.9465 29.0728 24.6786 28.7908 25.6205C28.5087 26.5625 28.6417 27.5723 29.1557 28.3908C29.4968 28.9339 29.4968 29.6356 29.1557 30.1786C28.6417 30.9972 28.5087 32.0069 28.7908 32.9489C29.0728 33.8909 29.7276 34.6229 30.587 34.9573C31.1572 35.1793 31.5376 35.747 31.5557 36.4038C31.5812 37.3144 31.9659 38.1701 32.6114 38.7511C33.0373 39.1346 33.5489 39.3746 34.0844 39.4548V46.6879C34.0844 47.2982 34.3895 47.8623 34.8806 48.1599C35.3712 48.4573 35.9742 48.444 36.4536 48.1238L39.1396 46.3301C39.1834 46.3007 39.2094 46.3139 39.2336 46.3301L41.9194 48.1238C42.3986 48.4437 43.0014 48.4575 43.4924 48.1598C43.9837 47.8621 44.2887 47.298 44.2887 46.6878V39.4546C44.824 39.3745 45.3356 39.1345 45.7615 38.7511C46.4071 38.1701 46.7919 37.3145 46.8173 36.4037C46.8355 35.7469 47.2159 35.1791 47.786 34.9572C48.6455 34.6229 49.3003 33.8908 49.5823 32.9488C49.8644 32.0068 49.7314 30.9971 49.2173 30.1785C48.8759 29.6357 48.8759 28.934 49.2171 28.3909V28.3909ZM42.6871 46.7707L40.0011 44.977C39.5018 44.6436 38.8714 44.6431 38.3716 44.977L35.6856 46.7706C35.6245 46.811 35.549 46.7645 35.549 46.6878V39.3039C36.0525 39.2407 36.5517 39.4629 36.8704 39.9097C37.4293 40.693 38.2734 41.1422 39.1865 41.1422C40.0995 41.1422 40.9436 40.693 41.5023 39.9097C41.8211 39.4628 42.3204 39.2407 42.8238 39.3039V46.6878C42.8238 46.765 42.7473 46.8111 42.6871 46.7707V46.7707ZM48.0066 31.0735C48.2636 31.4826 48.33 31.9872 48.189 32.458C48.048 32.9288 47.7208 33.2947 47.2912 33.4618C46.1504 33.9057 45.3896 35.0417 45.353 36.3558C45.34 36.8178 45.1528 37.2342 44.8259 37.5285C44.4585 37.8594 43.9608 37.9842 43.4801 37.832C42.3168 37.4638 41.0856 37.8977 40.3438 38.9374C40.0646 39.3288 39.6426 39.5534 39.1863 39.5534C38.73 39.5534 38.3081 39.3289 38.0287 38.9374C37.4624 38.1433 36.6107 37.7026 35.7218 37.7026C35.4466 37.7026 35.1676 37.7448 34.8926 37.8319C34.4073 37.9853 33.9111 37.8567 33.5466 37.5284C33.2197 37.2341 33.0325 36.8177 33.0197 36.3558C32.983 35.0417 32.2222 33.9057 31.0813 33.4617C30.6518 33.2946 30.3247 32.9288 30.1836 32.458C30.0426 31.9872 30.109 31.4825 30.366 31.0734C31.0483 29.9868 31.0483 28.5828 30.366 27.4962C30.109 27.0871 30.0426 26.5824 30.1836 26.1115C30.3246 25.6407 30.6518 25.2748 31.0813 25.1078C32.2222 24.6638 32.983 23.5278 33.0197 22.2137C33.0335 21.7189 33.253 21.2682 33.6222 20.9773C33.9913 20.6863 34.4542 20.599 34.8926 20.7376C36.0556 21.1059 37.2871 20.6719 38.0287 19.6322C38.308 19.2407 38.7299 19.0161 39.1863 19.0161C39.6426 19.0161 40.0645 19.2406 40.3438 19.6321C41.0855 20.6719 42.3164 21.1058 43.48 20.7376C43.9181 20.5988 44.381 20.6862 44.7503 20.9772C45.1195 21.2681 45.3392 21.7189 45.3529 22.2136C45.3896 23.5277 46.1504 24.6638 47.2912 25.1077C47.7208 25.2747 48.0479 25.6406 48.189 26.1114C48.33 26.5822 48.2636 27.087 48.0066 27.496C47.3241 28.5827 47.3241 29.9869 48.0066 31.0735V31.0735Z" fill="black"/>
<path d="M39.1864 22.6262C35.8019 22.6262 33.0483 25.6132 33.0483 29.2847C33.0483 32.9563 35.8019 35.9433 39.1864 35.9433C42.5709 35.9433 45.3244 32.9563 45.3244 29.2847C45.3244 25.6132 42.5709 22.6262 39.1864 22.6262V22.6262ZM39.1864 34.3544C36.6095 34.3544 34.513 32.0802 34.513 29.2849C34.513 26.4895 36.6095 24.2152 39.1864 24.2152C41.7634 24.2152 43.8598 26.4894 43.8598 29.2849C43.8598 32.0803 41.7633 34.3544 39.1864 34.3544Z" fill="black"/>
</g>
<circle cx="41" cy="39.0934" r="15" fill="#056DD0" fill-opacity="0.2"/>
<defs>
<clipPath id="clip0">
<rect width="50" height="54.2395" fill="white"/>
</clipPath>
</defs>
</svg>
