<svg width="60" height="50" viewBox="0 0 60 50" fill="none" xmlns="http://www.w3.org/2000/svg">
<circle cx="15" cy="16" r="15" fill="#056DD0" fill-opacity="0.2"/>
<path d="M51.7081 46.952H18.2919C17.5596 46.9502 16.8579 46.6586 16.34 46.1409C15.8222 45.6231 15.5303 44.9214 15.5284 44.1892V22.2588C15.5284 22.0796 15.5996 21.9077 15.7263 21.781C15.853 21.6543 16.0249 21.5831 16.2041 21.5831H53.796C53.9752 21.5831 54.147 21.6543 54.2737 21.781C54.4004 21.9077 54.4716 22.0796 54.4716 22.2588V44.1892C54.4697 44.9214 54.1779 45.6231 53.66 46.1409C53.1422 46.6586 52.4404 46.9502 51.7081 46.952ZM16.8797 22.9345V44.1892C16.8801 44.5638 17.0291 44.9229 17.2939 45.1878C17.5588 45.4527 17.918 45.6017 18.2926 45.602H51.7081C52.0826 45.6015 52.4416 45.4524 52.7063 45.1876C52.971 44.9227 53.1199 44.5637 53.1203 44.1892V22.9345H16.8797Z" fill="black"/>
<path d="M56.9284 22.9344H13.0716C12.6158 22.9341 12.1788 22.753 11.8563 22.4309C11.5338 22.1088 11.3522 21.672 11.3513 21.2162V15.9932C11.3519 15.5372 11.5333 15.1 11.8558 14.7776C12.1783 14.4552 12.6156 14.274 13.0716 14.2736H56.9284C57.3844 14.274 57.8216 14.4552 58.1441 14.7776C58.4666 15.1 58.6481 15.5372 58.6486 15.9932V21.2162C58.6477 21.672 58.4661 22.1088 58.1437 22.4309C57.8212 22.753 57.3841 22.9341 56.9284 22.9344ZM13.0716 15.625C12.9739 15.625 12.8801 15.6637 12.811 15.7328C12.7418 15.8018 12.7028 15.8955 12.7027 15.9932V21.2162C12.7028 21.3139 12.7418 21.4076 12.811 21.4766C12.8801 21.5457 12.9739 21.5844 13.0716 21.5844H56.9284C57.0261 21.5844 57.1198 21.5457 57.189 21.4766C57.2581 21.4076 57.2971 21.3139 57.2973 21.2162V15.9932C57.2971 15.8955 57.2581 15.8018 57.189 15.7328C57.1198 15.6637 57.0261 15.625 56.9284 15.625H13.0716Z" fill="black"/>
<path d="M36.3939 15.625C36.3252 15.6249 36.2568 15.6144 36.1912 15.5939C36.0203 15.5403 35.8776 15.421 35.7947 15.2622C35.7117 15.1035 35.6951 14.9182 35.7487 14.7473C36.5838 12.075 38.0811 8.4635 40.4703 6.41418C41.4713 5.55832 42.7713 5.13516 44.0843 5.2378C45.3973 5.34044 46.6158 5.96046 47.4716 6.96148C48.3275 7.96249 48.7507 9.26249 48.648 10.5755C48.5454 11.8885 47.9254 13.107 46.9243 13.9628C46.1456 14.6133 45.2795 15.1514 44.3514 15.5615C44.2704 15.6033 44.1817 15.6284 44.0908 15.6351C43.9998 15.6418 43.9085 15.63 43.8222 15.6004C43.736 15.5709 43.6566 15.5242 43.5888 15.4632C43.5211 15.4021 43.4664 15.328 43.4281 15.2453C43.3898 15.1625 43.3686 15.0729 43.3658 14.9817C43.363 14.8906 43.3787 14.7999 43.412 14.7149C43.4452 14.63 43.4953 14.5527 43.5592 14.4877C43.6231 14.4226 43.6995 14.3712 43.7838 14.3365C44.5983 13.9782 45.3588 13.5079 46.0433 12.9392C46.4135 12.634 46.7193 12.2581 46.9427 11.8335C47.1662 11.4088 47.3029 10.944 47.3448 10.466C47.3867 9.98799 47.333 9.50643 47.1868 9.0494C47.0407 8.59237 46.8049 8.16903 46.4934 7.80405C46.1819 7.43908 45.8009 7.13979 45.3725 6.92364C44.9441 6.70749 44.477 6.5788 43.9983 6.54509C43.5197 6.51138 43.0391 6.57331 42.5847 6.72728C42.1302 6.88125 41.7109 7.12418 41.3514 7.44188C39.0933 9.37566 37.6811 13.102 37.0405 15.1513C36.9974 15.289 36.9114 15.4092 36.795 15.4944C36.6787 15.5796 36.5381 15.6254 36.3939 15.625Z" fill="black"/>
<path d="M36.3939 15.625C36.2501 15.625 36.1101 15.5792 35.9942 15.4941C35.8782 15.409 35.7925 15.2892 35.7493 15.152C34.9486 12.5933 33.1817 7.9392 30.352 5.5142C29.4152 4.71503 28.1995 4.32043 26.972 4.41711C25.7444 4.51379 24.6054 5.09383 23.8053 6.02979C23.0052 6.96576 22.6093 8.18108 22.7047 9.40873C22.8002 10.6364 23.379 11.7759 24.3142 12.577C25.1755 13.2933 26.1328 13.8858 27.1581 14.3372C27.2413 14.3726 27.3166 14.4245 27.3794 14.4896C27.4423 14.5547 27.4914 14.6318 27.5239 14.7162C27.5563 14.8007 27.5715 14.8908 27.5685 14.9812C27.5655 15.0717 27.5444 15.1606 27.5064 15.2427C27.4683 15.3248 27.4142 15.3984 27.3472 15.4592C27.2802 15.52 27.2016 15.5667 27.1162 15.5966C27.0308 15.6264 26.9402 15.6388 26.8499 15.6331C26.7596 15.6273 26.6714 15.6034 26.5905 15.5628C25.4517 15.0604 24.3889 14.4008 23.4331 13.6034C22.2241 12.5695 21.4754 11.0977 21.3516 9.51173C21.2278 7.92578 21.7391 6.3556 22.773 5.14663C23.8069 3.93765 25.2787 3.18891 26.8646 3.06511C28.4506 2.94131 30.0207 3.4526 31.2297 4.48649C34.1642 6.99933 36.0081 11.4534 37.0405 14.748C37.0941 14.9189 37.0775 15.1042 36.9945 15.2629C36.9115 15.4217 36.7689 15.541 36.598 15.5946C36.5319 15.615 36.4631 15.6253 36.3939 15.625Z" fill="black"/>
<path d="M38.8514 46.952H31.1487C30.9695 46.952 30.7976 46.8808 30.6709 46.7541C30.5442 46.6274 30.473 46.4555 30.473 46.2763V22.2588C30.473 22.0796 30.5442 21.9077 30.6709 21.781C30.7976 21.6543 30.9695 21.5831 31.1487 21.5831H38.8514C39.0306 21.5831 39.2025 21.6543 39.3292 21.781C39.4559 21.9077 39.5271 22.0796 39.5271 22.2588V46.2763C39.5271 46.4555 39.4559 46.6274 39.3292 46.7541C39.2025 46.8808 39.0306 46.952 38.8514 46.952ZM31.8244 45.6007H38.1757V22.9345H31.8244V45.6007Z" fill="black"/>
</svg>
