<svg width="50" height="50" viewBox="0 0 50 50" fill="none" xmlns="http://www.w3.org/2000/svg">
<path d="M44.5312 6.25H40.625V4.6875C40.625 3.8587 40.2958 3.06384 39.7097 2.47779C39.1237 1.89174 38.3288 1.5625 37.5 1.5625C36.6712 1.5625 35.8763 1.89174 35.2903 2.47779C34.7042 3.06384 34.375 3.8587 34.375 4.6875V6.25H28.125V4.6875C28.125 3.8587 27.7958 3.06384 27.2097 2.47779C26.6237 1.89174 25.8288 1.5625 25 1.5625C24.1712 1.5625 23.3763 1.89174 22.7903 2.47779C22.2042 3.06384 21.875 3.8587 21.875 4.6875V6.25H15.625V4.6875C15.625 3.8587 15.2958 3.06384 14.7097 2.47779C14.1237 1.89174 13.3288 1.5625 12.5 1.5625C11.6712 1.5625 10.8763 1.89174 10.2903 2.47779C9.70424 3.06384 9.375 3.8587 9.375 4.6875V6.25H5.46875C4.43275 6.25 3.43918 6.66155 2.70661 7.39411C1.97405 8.12668 1.5625 9.12025 1.5625 10.1562V41.4062C1.5625 42.4423 1.97405 43.4358 2.70661 44.1684C3.43918 44.901 4.43275 45.3125 5.46875 45.3125H27.3438C27.551 45.3125 27.7497 45.2302 27.8962 45.0837C28.0427 44.9372 28.125 44.7384 28.125 44.5312C28.125 44.3241 28.0427 44.1253 27.8962 43.9788C27.7497 43.8323 27.551 43.75 27.3438 43.75H5.46875C4.84772 43.7481 4.25265 43.5006 3.81352 43.0615C3.37438 42.6223 3.12685 42.0273 3.125 41.4062V17.1875H46.875V30.4688C46.875 30.676 46.9573 30.8747 47.1038 31.0212C47.2503 31.1677 47.4491 31.25 47.6562 31.25C47.8634 31.25 48.0622 31.1677 48.2087 31.0212C48.3552 30.8747 48.4375 30.676 48.4375 30.4688V10.1562C48.4375 9.12025 48.026 8.12668 47.2934 7.39411C46.5608 6.66155 45.5673 6.25 44.5312 6.25ZM35.9375 4.6875C35.9375 4.2731 36.1021 3.87567 36.3951 3.58265C36.6882 3.28962 37.0856 3.125 37.5 3.125C37.9144 3.125 38.3118 3.28962 38.6049 3.58265C38.8979 3.87567 39.0625 4.2731 39.0625 4.6875V9.375C39.0625 9.7894 38.8979 10.1868 38.6049 10.4799C38.3118 10.7729 37.9144 10.9375 37.5 10.9375C37.0856 10.9375 36.6882 10.7729 36.3951 10.4799C36.1021 10.1868 35.9375 9.7894 35.9375 9.375V4.6875ZM23.4375 4.6875C23.4375 4.2731 23.6021 3.87567 23.8951 3.58265C24.1882 3.28962 24.5856 3.125 25 3.125C25.4144 3.125 25.8118 3.28962 26.1049 3.58265C26.3979 3.87567 26.5625 4.2731 26.5625 4.6875V9.375C26.5625 9.7894 26.3979 10.1868 26.1049 10.4799C25.8118 10.7729 25.4144 10.9375 25 10.9375C24.5856 10.9375 24.1882 10.7729 23.8951 10.4799C23.6021 10.1868 23.4375 9.7894 23.4375 9.375V4.6875ZM10.9375 4.6875C10.9375 4.2731 11.1021 3.87567 11.3951 3.58265C11.6882 3.28962 12.0856 3.125 12.5 3.125C12.9144 3.125 13.3118 3.28962 13.6049 3.58265C13.8979 3.87567 14.0625 4.2731 14.0625 4.6875V9.375C14.0625 9.7894 13.8979 10.1868 13.6049 10.4799C13.3118 10.7729 12.9144 10.9375 12.5 10.9375C12.0856 10.9375 11.6882 10.7729 11.3951 10.4799C11.1021 10.1868 10.9375 9.7894 10.9375 9.375V4.6875ZM46.875 15.625H3.125V10.1562C3.12685 9.53522 3.37438 8.94015 3.81352 8.50102C4.25265 8.06188 4.84772 7.81435 5.46875 7.8125H9.375V9.375C9.375 10.2038 9.70424 10.9987 10.2903 11.5847C10.8763 12.1708 11.6712 12.5 12.5 12.5C13.3288 12.5 14.1237 12.1708 14.7097 11.5847C15.2958 10.9987 15.625 10.2038 15.625 9.375V7.8125H21.875V9.375C21.875 10.2038 22.2042 10.9987 22.7903 11.5847C23.3763 12.1708 24.1712 12.5 25 12.5C25.8288 12.5 26.6237 12.1708 27.2097 11.5847C27.7958 10.9987 28.125 10.2038 28.125 9.375V7.8125H34.375V9.375C34.375 10.2038 34.7042 10.9987 35.2903 11.5847C35.8763 12.1708 36.6712 12.5 37.5 12.5C38.3288 12.5 39.1237 12.1708 39.7097 11.5847C40.2958 10.9987 40.625 10.2038 40.625 9.375V7.8125H44.5312C45.1523 7.81435 45.7473 8.06188 46.1865 8.50102C46.6256 8.94015 46.8731 9.53522 46.875 10.1562V15.625Z" fill="black"/>
<path d="M23.4375 22.6562C23.4375 22.2418 23.2729 21.8444 22.9799 21.5514C22.6868 21.2584 22.2894 21.0938 21.875 21.0938H18.75C18.3356 21.0938 17.9382 21.2584 17.6451 21.5514C17.3521 21.8444 17.1875 22.2418 17.1875 22.6562V25C17.1875 25.4144 17.3521 25.8118 17.6451 26.1049C17.9382 26.3979 18.3356 26.5625 18.75 26.5625H21.875C22.2894 26.5625 22.6868 26.3979 22.9799 26.1049C23.2729 25.8118 23.4375 25.4144 23.4375 25V22.6562ZM18.75 25V22.6562H21.875V25H18.75Z" fill="black"/>
<path d="M14.0625 22.6562C14.0625 22.2418 13.8979 21.8444 13.6049 21.5514C13.3118 21.2584 12.9144 21.0938 12.5 21.0938H9.375C8.9606 21.0938 8.56317 21.2584 8.27015 21.5514C7.97712 21.8444 7.8125 22.2418 7.8125 22.6562V25C7.8125 25.4144 7.97712 25.8118 8.27015 26.1049C8.56317 26.3979 8.9606 26.5625 9.375 26.5625H12.5C12.9144 26.5625 13.3118 26.3979 13.6049 26.1049C13.8979 25.8118 14.0625 25.4144 14.0625 25V22.6562ZM9.375 25V22.6562H12.5V25H9.375Z" fill="black"/>
<path d="M40.625 26.5625C41.0394 26.5625 41.4368 26.3979 41.7299 26.1049C42.0229 25.8118 42.1875 25.4144 42.1875 25V22.6562C42.1875 22.2418 42.0229 21.8444 41.7299 21.5514C41.4368 21.2584 41.0394 21.0938 40.625 21.0938H37.5C37.0856 21.0938 36.6882 21.2584 36.3951 21.5514C36.1021 21.8444 35.9375 22.2418 35.9375 22.6562V25C35.9375 25.4144 36.1021 25.8118 36.3951 26.1049C36.6882 26.3979 37.0856 26.5625 37.5 26.5625H40.625ZM37.5 22.6562H40.625V25H37.5V22.6562Z" fill="black"/>
<path d="M23.4375 29.6875C23.4375 29.2731 23.2729 28.8757 22.9799 28.5826C22.6868 28.2896 22.2894 28.125 21.875 28.125H18.75C18.3356 28.125 17.9382 28.2896 17.6451 28.5826C17.3521 28.8757 17.1875 29.2731 17.1875 29.6875V32.0312C17.1875 32.4457 17.3521 32.8431 17.6451 33.1361C17.9382 33.4291 18.3356 33.5938 18.75 33.5938H21.875C22.2894 33.5938 22.6868 33.4291 22.9799 33.1361C23.2729 32.8431 23.4375 32.4457 23.4375 32.0312V29.6875ZM18.75 32.0312V29.6875H21.875V32.0312H18.75Z" fill="black"/>
<path d="M14.0625 29.6875C14.0625 29.2731 13.8979 28.8757 13.6049 28.5826C13.3118 28.2896 12.9144 28.125 12.5 28.125H9.375C8.9606 28.125 8.56317 28.2896 8.27015 28.5826C7.97712 28.8757 7.8125 29.2731 7.8125 29.6875V32.0312C7.8125 32.4457 7.97712 32.8431 8.27015 33.1361C8.56317 33.4291 8.9606 33.5938 9.375 33.5938H12.5C12.9144 33.5938 13.3118 33.4291 13.6049 33.1361C13.8979 32.8431 14.0625 32.4457 14.0625 32.0312V29.6875ZM9.375 32.0312V29.6875H12.5V32.0312H9.375Z" fill="black"/>
<path d="M21.875 35.1562H18.75C18.3356 35.1562 17.9382 35.3209 17.6451 35.6139C17.3521 35.9069 17.1875 36.3043 17.1875 36.7188V39.0625C17.1875 39.4769 17.3521 39.8743 17.6451 40.1674C17.9382 40.4604 18.3356 40.625 18.75 40.625H21.875C22.2894 40.625 22.6868 40.4604 22.9799 40.1674C23.2729 39.8743 23.4375 39.4769 23.4375 39.0625V36.7188C23.4375 36.3043 23.2729 35.9069 22.9799 35.6139C22.6868 35.3209 22.2894 35.1562 21.875 35.1562ZM18.75 39.0625V36.7188H21.875V39.0625H18.75Z" fill="black"/>
<path d="M28.125 26.5625H31.25C31.6644 26.5625 32.0618 26.3979 32.3549 26.1049C32.6479 25.8118 32.8125 25.4144 32.8125 25V22.6562C32.8125 22.2418 32.6479 21.8444 32.3549 21.5514C32.0618 21.2584 31.6644 21.0938 31.25 21.0938H28.125C27.7106 21.0938 27.3132 21.2584 27.0201 21.5514C26.7271 21.8444 26.5625 22.2418 26.5625 22.6562V25C26.5625 25.4144 26.7271 25.8118 27.0201 26.1049C27.3132 26.3979 27.7106 26.5625 28.125 26.5625ZM28.125 22.6562H31.25V25H28.125V22.6562Z" fill="black"/>
<path d="M26.5625 32.0312C26.5625 32.4457 26.7271 32.8431 27.0201 33.1361C27.3132 33.4291 27.7106 33.5938 28.125 33.5938C28.3322 33.5938 28.5309 33.5114 28.6774 33.3649C28.8239 33.2184 28.9062 33.0197 28.9062 32.8125C28.9062 32.6053 28.8239 32.4066 28.6774 32.2601C28.5309 32.1136 28.3322 32.0312 28.125 32.0312V29.6875H31.25C31.4572 29.6875 31.6559 29.6052 31.8024 29.4587C31.9489 29.3122 32.0312 29.1135 32.0312 28.9062C32.0312 28.699 31.9489 28.5003 31.8024 28.3538C31.6559 28.2073 31.4572 28.125 31.25 28.125H28.125C27.7106 28.125 27.3132 28.2896 27.0201 28.5826C26.7271 28.8757 26.5625 29.2731 26.5625 29.6875V32.0312Z" fill="black"/>
<path d="M12.5 35.1562H9.375C8.9606 35.1562 8.56317 35.3209 8.27015 35.6139C7.97712 35.9069 7.8125 36.3043 7.8125 36.7188V39.0625C7.8125 39.4769 7.97712 39.8743 8.27015 40.1674C8.56317 40.4604 8.9606 40.625 9.375 40.625H12.5C12.9144 40.625 13.3118 40.4604 13.6049 40.1674C13.8979 39.8743 14.0625 39.4769 14.0625 39.0625V36.7188C14.0625 36.3043 13.8979 35.9069 13.6049 35.6139C13.3118 35.3209 12.9144 35.1562 12.5 35.1562ZM9.375 39.0625V36.7188H12.5V39.0625H9.375Z" fill="black"/>
<path d="M38.2812 28.125C36.2725 28.125 34.3089 28.7207 32.6387 29.8366C30.9686 30.9526 29.6668 32.5388 28.8981 34.3946C28.1294 36.2504 27.9283 38.2925 28.3202 40.2626C28.712 42.2328 29.6793 44.0424 31.0997 45.4628C32.5201 46.8832 34.3297 47.8505 36.2999 48.2423C38.27 48.6342 40.3121 48.4331 42.1679 47.6644C44.0237 46.8957 45.6099 45.5939 46.7259 43.9238C47.8418 42.2536 48.4375 40.29 48.4375 38.2812C48.4344 35.5886 47.3634 33.0071 45.4594 31.1031C43.5554 29.1991 40.9739 28.1281 38.2812 28.125ZM38.2812 46.875C36.5816 46.875 34.9201 46.371 33.5068 45.4267C32.0936 44.4824 30.9921 43.1402 30.3417 41.5699C29.6912 39.9996 29.521 38.2717 29.8526 36.6047C30.1842 34.9377 31.0027 33.4064 32.2046 32.2045C33.4064 31.0027 34.9377 30.1842 36.6047 29.8526C38.2717 29.521 39.9996 29.6912 41.5699 30.3417C43.1402 30.9921 44.4824 32.0936 45.4267 33.5068C46.371 34.9201 46.875 36.5816 46.875 38.2812C46.8723 40.5596 45.966 42.7439 44.355 44.355C42.7439 45.966 40.5596 46.8723 38.2812 46.875Z" fill="black"/>
<path d="M42.7953 35.0064L36.7188 41.083L33.9571 38.3205C33.8097 38.1782 33.6124 38.0994 33.4075 38.1012C33.2027 38.103 33.0067 38.1851 32.8619 38.33C32.717 38.4748 32.6349 38.6708 32.6331 38.8756C32.6313 39.0805 32.7101 39.2778 32.8524 39.4252L36.1664 42.74C36.3129 42.8865 36.5116 42.9688 36.7188 42.9688C36.9259 42.9688 37.1246 42.8865 37.2711 42.74L43.9 36.1111C44.0423 35.9638 44.1211 35.7664 44.1193 35.5616C44.1175 35.3567 44.0353 35.1608 43.8905 35.0159C43.7456 34.8711 43.5497 34.7889 43.3449 34.7871C43.14 34.7854 42.9427 34.8641 42.7953 35.0064Z" fill="black"/>
</svg>
