<svg width="57" height="60" viewBox="0 0 57 60" fill="none" xmlns="http://www.w3.org/2000/svg">
<path d="M54.3281 49.6875H53.4375V39.375C53.4351 37.138 52.5899 34.9933 51.0872 33.4115C49.5845 31.8297 47.547 30.94 45.4219 30.9375H39.1875V20.625C39.1875 20.3764 39.0937 20.1379 38.9266 19.9621C38.7596 19.7863 38.5331 19.6875 38.2969 19.6875H2.67188C2.43567 19.6875 2.20913 19.7863 2.04211 19.9621C1.87508 20.1379 1.78125 20.3764 1.78125 20.625V50.625C1.78125 50.8736 1.87508 51.1121 2.04211 51.2879C2.20913 51.4637 2.43567 51.5625 2.67188 51.5625H3.5625V52.5C3.5625 53.2459 3.844 53.9613 4.34507 54.4887C4.84615 55.0162 5.52575 55.3125 6.23438 55.3125H10.5201C10.9875 56.1674 11.6607 56.8774 12.4719 57.3712C13.2831 57.8649 14.2036 58.1249 15.1406 58.1249C16.0777 58.1249 16.9981 57.8649 17.8093 57.3712C18.6205 56.8774 19.2937 56.1674 19.7612 55.3125H40.8013C41.2688 56.1674 41.942 56.8774 42.7532 57.3712C43.5644 57.8649 44.4848 58.1249 45.4219 58.1249C46.3589 58.1249 47.2794 57.8649 48.0906 57.3712C48.9018 56.8774 49.575 56.1674 50.0424 55.3125H52.5469C53.2555 55.3125 53.9351 55.0162 54.4362 54.4887C54.9372 53.9613 55.2188 53.2459 55.2188 52.5V50.625C55.2188 50.3764 55.1249 50.1379 54.9579 49.9621C54.7909 49.7863 54.5643 49.6875 54.3281 49.6875ZM51.6562 39.375V41.25H43.6406C43.4044 41.25 43.1779 41.1512 43.0109 40.9754C42.8438 40.7996 42.75 40.5611 42.75 40.3125V32.8125H45.4219C47.0748 32.8145 48.6594 33.5065 49.8282 34.7368C50.9969 35.9671 51.6544 37.6351 51.6562 39.375ZM40.9688 32.8125V40.3125C40.9688 41.0584 41.2503 41.7738 41.7513 42.3012C42.2524 42.8287 42.932 43.125 43.6406 43.125H51.6562V49.6875H50.0424C49.575 48.8326 48.9018 48.1226 48.0906 47.6288C47.2794 47.1351 46.3589 46.8751 45.4219 46.8751C44.4848 46.8751 43.5644 47.1351 42.7532 47.6288C41.942 48.1226 41.2688 48.8326 40.8013 49.6875H39.1875V32.8125H40.9688ZM19.7612 49.6875C19.2937 48.8326 18.6205 48.1226 17.8093 47.6288C16.9981 47.1351 16.0777 46.8751 15.1406 46.8751C14.2036 46.8751 13.2831 47.1351 12.4719 47.6288C11.6607 48.1226 10.9875 48.8326 10.5201 49.6875H3.5625V45.9375H37.4062V49.6875H19.7612ZM3.5625 21.5625H37.4062V44.0625H3.5625V21.5625ZM6.23438 53.4375C5.99817 53.4375 5.77163 53.3387 5.60461 53.1629C5.43758 52.9871 5.34375 52.7486 5.34375 52.5V51.5625H9.87703C9.77015 52.1824 9.77015 52.8176 9.87703 53.4375H6.23438ZM15.1406 56.25C14.436 56.25 13.7473 56.0301 13.1614 55.618C12.5756 55.206 12.1189 54.6203 11.8493 53.9351C11.5797 53.2498 11.5091 52.4958 11.6466 51.7684C11.784 51.041 12.1233 50.3728 12.6216 49.8484C13.1198 49.3239 13.7546 48.9667 14.4456 48.8221C15.1367 48.6774 15.853 48.7516 16.5039 49.0355C17.1549 49.3193 17.7113 49.7999 18.1027 50.4166C18.4942 51.0333 18.7031 51.7583 18.7031 52.5C18.7031 53.4946 18.3278 54.4484 17.6597 55.1516C16.9916 55.8549 16.0855 56.25 15.1406 56.25ZM20.4042 53.4375C20.5111 52.8176 20.5111 52.1824 20.4042 51.5625H40.1583C40.0514 52.1824 40.0514 52.8176 40.1583 53.4375H20.4042ZM45.4219 56.25C44.7173 56.25 44.0285 56.0301 43.4427 55.618C42.8568 55.206 42.4002 54.6203 42.1306 53.9351C41.8609 53.2498 41.7904 52.4958 41.9278 51.7684C42.0653 51.041 42.4046 50.3728 42.9028 49.8484C43.401 49.3239 44.0358 48.9667 44.7269 48.8221C45.4179 48.6774 46.1342 48.7516 46.7852 49.0355C47.4361 49.3193 47.9925 49.7999 48.384 50.4166C48.7754 51.0333 48.9844 51.7583 48.9844 52.5C48.9844 53.4946 48.609 54.4484 47.9409 55.1516C47.2728 55.8549 46.3667 56.25 45.4219 56.25ZM53.4375 52.5C53.4375 52.7486 53.3437 52.9871 53.1766 53.1629C53.0096 53.3387 52.7831 53.4375 52.5469 53.4375H50.6855C50.7924 52.8176 50.7924 52.1824 50.6855 51.5625H53.4375V52.5Z" fill="black"/>
<path d="M8.90625 35.625C9.14246 35.625 9.36899 35.5262 9.53602 35.3504C9.70304 35.1746 9.79688 34.9361 9.79688 34.6875V31.875H11.5781C11.8143 31.875 12.0409 31.7762 12.2079 31.6004C12.3749 31.4246 12.4688 31.1861 12.4688 30.9375C12.4688 30.6889 12.3749 30.4504 12.2079 30.2746C12.0409 30.0988 11.8143 30 11.5781 30H9.79688V28.125H12.4688C12.705 28.125 12.9315 28.0262 13.0985 27.8504C13.2655 27.6746 13.3594 27.4361 13.3594 27.1875C13.3594 26.9389 13.2655 26.7004 13.0985 26.5246C12.9315 26.3488 12.705 26.25 12.4688 26.25H8.90625C8.67004 26.25 8.44351 26.3488 8.27648 26.5246C8.10946 26.7004 8.01562 26.9389 8.01562 27.1875V34.6875C8.01562 34.9361 8.10946 35.1746 8.27648 35.3504C8.44351 35.5262 8.67004 35.625 8.90625 35.625Z" fill="black"/>
<path d="M15.1406 35.625C15.3768 35.625 15.6034 35.5262 15.7704 35.3504C15.9374 35.1746 16.0313 34.9362 16.0313 34.6875V32.5003L17.9906 35.25C18.1324 35.4489 18.3433 35.5804 18.5772 35.6156C18.811 35.6508 19.0485 35.5867 19.2375 35.4375C19.4265 35.2883 19.5514 35.0662 19.5848 34.8201C19.6182 34.574 19.5574 34.3239 19.4156 34.125L17.7128 31.7353C18.3227 31.5372 18.8449 31.1152 19.1842 30.546C19.5235 29.9769 19.6575 29.2984 19.5617 28.6341C19.4659 27.9698 19.1467 27.3637 18.6623 26.9262C18.1778 26.4886 17.5602 26.2487 16.9219 26.25H15.1406C14.9044 26.25 14.6779 26.3488 14.5109 26.5246C14.3438 26.7004 14.25 26.9389 14.25 27.1875V34.6875C14.25 34.9362 14.3438 35.1746 14.5109 35.3504C14.6779 35.5262 14.9044 35.625 15.1406 35.625ZM17.8125 29.0625C17.8125 29.3111 17.7187 29.5496 17.5516 29.7254C17.3846 29.9012 17.1581 30 16.9219 30H16.0313V28.125H16.9219C17.1581 28.125 17.3846 28.2238 17.5516 28.3996C17.7187 28.5754 17.8125 28.8139 17.8125 29.0625Z" fill="black"/>
<path d="M22.2656 35.625H25.8281C26.0643 35.625 26.2909 35.5262 26.4579 35.3504C26.6249 35.1746 26.7188 34.9361 26.7188 34.6875C26.7188 34.4389 26.6249 34.2004 26.4579 34.0246C26.2909 33.8488 26.0643 33.75 25.8281 33.75H23.1562V31.875H24.9375C25.1737 31.875 25.4002 31.7762 25.5673 31.6004C25.7343 31.4246 25.8281 31.1861 25.8281 30.9375C25.8281 30.6889 25.7343 30.4504 25.5673 30.2746C25.4002 30.0988 25.1737 30 24.9375 30H23.1562V28.125H25.8281C26.0643 28.125 26.2909 28.0262 26.4579 27.8504C26.6249 27.6746 26.7188 27.4361 26.7188 27.1875C26.7188 26.9389 26.6249 26.7004 26.4579 26.5246C26.2909 26.3488 26.0643 26.25 25.8281 26.25H22.2656C22.0294 26.25 21.8029 26.3488 21.6359 26.5246C21.4688 26.7004 21.375 26.9389 21.375 27.1875V34.6875C21.375 34.9361 21.4688 35.1746 21.6359 35.3504C21.8029 35.5262 22.0294 35.625 22.2656 35.625Z" fill="black"/>
<path d="M28.5 35.625H32.0625C32.2987 35.625 32.5252 35.5262 32.6923 35.3504C32.8593 35.1746 32.9531 34.9361 32.9531 34.6875C32.9531 34.4389 32.8593 34.2004 32.6923 34.0246C32.5252 33.8488 32.2987 33.75 32.0625 33.75H29.3906V31.875H31.1719C31.4081 31.875 31.6346 31.7762 31.8016 31.6004C31.9687 31.4246 32.0625 31.1861 32.0625 30.9375C32.0625 30.6889 31.9687 30.4504 31.8016 30.2746C31.6346 30.0988 31.4081 30 31.1719 30H29.3906V28.125H32.0625C32.2987 28.125 32.5252 28.0262 32.6923 27.8504C32.8593 27.6746 32.9531 27.4361 32.9531 27.1875C32.9531 26.9389 32.8593 26.7004 32.6923 26.5246C32.5252 26.3488 32.2987 26.25 32.0625 26.25H28.5C28.2638 26.25 28.0373 26.3488 27.8702 26.5246C27.7032 26.7004 27.6094 26.9389 27.6094 27.1875V34.6875C27.6094 34.9361 27.7032 35.1746 27.8702 35.3504C28.0373 35.5262 28.2638 35.625 28.5 35.625Z" fill="black"/>
<path d="M34.7344 37.5H6.23438C5.99817 37.5 5.77163 37.5988 5.60461 37.7746C5.43758 37.9504 5.34375 38.1889 5.34375 38.4375C5.34375 38.6861 5.43758 38.9246 5.60461 39.1004C5.77163 39.2762 5.99817 39.375 6.23438 39.375H34.7344C34.9706 39.375 35.1971 39.2762 35.3641 39.1004C35.5312 38.9246 35.625 38.6861 35.625 38.4375C35.625 38.1889 35.5312 37.9504 35.3641 37.7746C35.1971 37.5988 34.9706 37.5 34.7344 37.5Z" fill="black"/>
</svg>
