<svg width="50" height="50" viewBox="0 0 50 50" fill="none" xmlns="http://www.w3.org/2000/svg">
<path d="M44.7273 2.4292H12.3956C9.58968 2.4292 7.30682 4.69071 7.30682 7.46146L7.09846 35.9312H0.788762C0.341599 35.9312 0 36.3266 0 36.7738V40.6919C0 44.3597 2.93522 47.3594 6.47773 47.5238V47.5709H33.7044V47.5179C33.9069 47.5262 34.0294 47.5709 34.1686 47.5709H34.188C37.9661 47.5488 41.0117 44.4692 40.9919 40.6911V15.7895H49.2112C49.6584 15.7895 50 15.3847 50 14.9379V7.74889C50.0051 4.82711 47.6491 2.45015 44.7273 2.4292V2.4292ZM6.83198 45.9515H6.82645C3.94618 45.9515 1.61943 43.5709 1.61943 40.6911V37.5507H27.3279V40.6776C27.3216 42.5003 28.0416 44.2502 29.3285 45.5407C29.4653 45.6783 29.6084 45.749 29.7547 45.9515H6.83198ZM39.3725 40.6903C39.3725 43.5709 37.0682 45.9515 34.1868 45.9515H34.1702C31.2745 45.9305 28.9406 43.5737 28.9474 40.678V36.7738C28.9497 36.3203 28.5911 35.947 28.1376 35.9312H8.71789L8.92625 7.467C8.92625 5.58385 10.4824 4.04863 12.3956 4.04863H40.9045C39.9817 5.06078 39.3725 6.34138 39.3725 7.77064V40.6903ZM48.3805 7.76313V14.1701H40.9919V7.76906C40.9919 5.74239 42.6777 4.04863 44.7036 4.04863H44.7262C46.7572 4.0688 48.39 5.72579 48.3805 7.7572V7.76313Z" fill="black"/>
<path d="M19.0136 22.3596L23.1884 25.2138C23.4608 25.4016 23.8209 25.4016 24.0934 25.2138L28.2554 22.3604C29.7013 21.374 30.7692 19.3117 30.7692 17.563V11.7883C30.7779 11.483 30.6094 11.1999 30.3374 11.0612L23.9811 7.93459C23.7581 7.82389 23.4963 7.82389 23.2734 7.93459L16.9289 11.0525C16.6568 11.1912 16.4888 11.4743 16.4979 11.7796V17.563C16.4979 19.3117 17.5682 21.374 19.0136 22.3596ZM18.1173 12.2848L23.6335 9.56312L29.1497 12.2924V17.563C29.1497 18.7827 28.3503 20.3342 27.3417 21.0217L23.624 23.5643L19.921 21.0221C18.9124 20.3338 18.1173 18.7827 18.1173 17.563V12.2848Z" fill="black"/>
<path d="M22.2641 18.7856C22.4151 18.9397 22.6215 19.0271 22.8374 19.0283H22.8394C23.0544 19.0275 23.2604 18.9413 23.4118 18.7887L26.6329 15.5665C26.9496 15.2502 26.9496 14.737 26.6333 14.4207C26.3174 14.104 25.8042 14.104 25.4879 14.4203L22.8421 17.0657L21.7845 15.9978C21.4694 15.6799 20.9566 15.6776 20.6387 15.9927C20.3208 16.3078 20.3189 16.8206 20.6336 17.1384L22.2641 18.7856Z" fill="black"/>
<path d="M33.7043 27.5303H14.2711C13.824 27.5303 13.4614 27.8928 13.4614 28.34C13.4614 28.7872 13.824 29.1497 14.2711 29.1497H33.7043C34.1515 29.1497 34.5141 28.7872 34.5141 28.34C34.5141 27.8928 34.1515 27.5303 33.7043 27.5303Z" fill="black"/>
<path d="M33.7043 31.2754H14.2711C13.824 31.2754 13.4614 31.6379 13.4614 32.0851C13.4614 32.5323 13.824 32.8948 14.2711 32.8948H33.7043C34.1515 32.8948 34.5141 32.5323 34.5141 32.0851C34.5141 31.6379 34.1515 31.2754 33.7043 31.2754Z" fill="black"/>
</svg>
