<svg width="86" height="12" viewBox="0 0 86 12" fill="none" xmlns="http://www.w3.org/2000/svg">
<path d="M6.552 0.599999V9H5.448V5.784H3.78L1.608 9H0.348L2.58 5.712C2.004 5.576 1.528 5.272 1.152 4.8C0.776 4.328 0.588 3.796 0.588 3.204C0.588 2.484 0.84 1.872 1.344 1.368C1.856 0.855999 2.472 0.599999 3.192 0.599999H6.552ZM3.192 4.776H5.448V1.644H3.192C2.784 1.644 2.432 1.796 2.136 2.1C1.84 2.404 1.692 2.772 1.692 3.204C1.692 3.636 1.84 4.008 2.136 4.32C2.432 4.624 2.784 4.776 3.192 4.776Z" fill="#FF0B0B"/>
<path d="M12.3971 3H13.4411V9H12.3971V6.492H9.28913V9H8.24512V3H9.28913V5.496H12.3971V3ZM20.1903 8.004H21.0183V10.608H19.9863V9H15.4863V10.608H14.4543V8.004H15.1863C15.5703 7.476 15.7623 6.736 15.7623 5.784V3H20.1903V8.004ZM16.3743 8.004H19.1583V3.972H16.7943V5.784C16.7943 6.68 16.6543 7.42 16.3743 8.004ZM22.6412 6.48C22.7452 7.016 22.9892 7.432 23.3732 7.728C23.7652 8.024 24.2452 8.172 24.8132 8.172C25.6052 8.172 26.1812 7.88 26.5412 7.296L27.4292 7.8C26.8452 8.704 25.9652 9.156 24.7892 9.156C23.8372 9.156 23.0612 8.86 22.4612 8.268C21.8692 7.668 21.5732 6.912 21.5732 6C21.5732 5.096 21.8652 4.344 22.4492 3.744C23.0332 3.144 23.7892 2.844 24.7172 2.844C25.5972 2.844 26.3132 3.156 26.8652 3.78C27.4252 4.396 27.7052 5.14 27.7052 6.012C27.7052 6.164 27.6932 6.32 27.6692 6.48H22.6412ZM24.7172 3.828C24.1572 3.828 23.6932 3.988 23.3252 4.308C22.9572 4.62 22.7292 5.04 22.6412 5.568H26.6492C26.5612 5 26.3372 4.568 25.9772 4.272C25.6172 3.976 25.1972 3.828 24.7172 3.828ZM33.9813 9H32.6853L29.9493 6.156V9H28.9053V3H29.9493V5.652L32.5413 3H33.8853L31.0173 5.904L33.9813 9ZM37.2214 9.156C36.3174 9.156 35.5654 8.856 34.9654 8.256C34.3654 7.648 34.0654 6.896 34.0654 6C34.0654 5.104 34.3654 4.356 34.9654 3.756C35.5654 3.148 36.3174 2.844 37.2214 2.844C37.8134 2.844 38.3454 2.988 38.8174 3.276C39.2894 3.556 39.6414 3.936 39.8734 4.416L38.9974 4.92C38.8454 4.6 38.6094 4.344 38.2894 4.152C37.9774 3.96 37.6214 3.864 37.2214 3.864C36.6214 3.864 36.1174 4.068 35.7094 4.476C35.3094 4.884 35.1094 5.392 35.1094 6C35.1094 6.6 35.3094 7.104 35.7094 7.512C36.1174 7.92 36.6214 8.124 37.2214 8.124C37.6214 8.124 37.9814 8.032 38.3014 7.848C38.6214 7.656 38.8654 7.4 39.0334 7.08L39.9214 7.596C39.6654 8.068 39.2974 8.448 38.8174 8.736C38.3374 9.016 37.8054 9.156 37.2214 9.156Z" fill="black"/>
<path d="M51.9319 0.599999V9H50.8279V2.436L48.0799 7.008H47.9359L45.1879 2.448V9H44.0719V0.599999H45.3319L48.0079 5.04L50.6719 0.599999H51.9319ZM58.5881 3H59.6321V9H58.5881V7.968C58.0681 8.76 57.3121 9.156 56.3201 9.156C55.4801 9.156 54.7641 8.852 54.1721 8.244C53.5801 7.628 53.2841 6.88 53.2841 6C53.2841 5.12 53.5801 4.376 54.1721 3.768C54.7641 3.152 55.4801 2.844 56.3201 2.844C57.3121 2.844 58.0681 3.24 58.5881 4.032V3ZM56.4521 8.148C57.0601 8.148 57.5681 7.944 57.9761 7.536C58.3841 7.12 58.5881 6.608 58.5881 6C58.5881 5.392 58.3841 4.884 57.9761 4.476C57.5681 4.06 57.0601 3.852 56.4521 3.852C55.8521 3.852 55.3481 4.06 54.9401 4.476C54.5321 4.884 54.3281 5.392 54.3281 6C54.3281 6.608 54.5321 7.12 54.9401 7.536C55.3481 7.944 55.8521 8.148 56.4521 8.148ZM64.5259 2.844C65.3659 2.844 66.0819 3.152 66.6739 3.768C67.2659 4.376 67.5619 5.12 67.5619 6C67.5619 6.88 67.2659 7.628 66.6739 8.244C66.0819 8.852 65.3659 9.156 64.5259 9.156C63.5339 9.156 62.7779 8.76 62.2579 7.968V11.4H61.2139V3H62.2579V4.032C62.7779 3.24 63.5339 2.844 64.5259 2.844ZM64.3939 8.148C64.9939 8.148 65.4979 7.944 65.9059 7.536C66.3139 7.12 66.5179 6.608 66.5179 6C66.5179 5.392 66.3139 4.884 65.9059 4.476C65.4979 4.06 64.9939 3.852 64.3939 3.852C63.7859 3.852 63.2779 4.06 62.8699 4.476C62.4619 4.884 62.2579 5.392 62.2579 6C62.2579 6.608 62.4619 7.12 62.8699 7.536C63.2779 7.944 63.7859 8.148 64.3939 8.148ZM73.8836 9H72.5876L69.8516 6.156V9H68.8076V3H69.8516V5.652L72.4436 3H73.7876L70.9196 5.904L73.8836 9ZM75.0357 6.48C75.1397 7.016 75.3837 7.432 75.7677 7.728C76.1597 8.024 76.6397 8.172 77.2077 8.172C77.9997 8.172 78.5757 7.88 78.9357 7.296L79.8237 7.8C79.2397 8.704 78.3597 9.156 77.1837 9.156C76.2317 9.156 75.4557 8.86 74.8557 8.268C74.2637 7.668 73.9677 6.912 73.9677 6C73.9677 5.096 74.2597 4.344 74.8437 3.744C75.4277 3.144 76.1837 2.844 77.1117 2.844C77.9917 2.844 78.7077 3.156 79.2597 3.78C79.8197 4.396 80.0997 5.14 80.0997 6.012C80.0997 6.164 80.0877 6.32 80.0637 6.48H75.0357ZM77.1117 3.828C76.5517 3.828 76.0877 3.988 75.7197 4.308C75.3517 4.62 75.1237 5.04 75.0357 5.568H79.0437C78.9557 5 78.7317 4.568 78.3717 4.272C78.0117 3.976 77.5917 3.828 77.1117 3.828ZM85.5294 3V4.008H83.4894V9H82.4454V4.008H80.3934V3H85.5294Z" fill="#5C5C5C"/>
</svg>
