<svg width="12" height="13" viewBox="0 0 12 13" fill="none" xmlns="http://www.w3.org/2000/svg">
<g clip-path="url(#clip0)">
<path d="M11.507 3.044H2.12443L1.98496 1.49028C1.96215 1.23619 1.74921 1.0415 1.49411 1.0415H0.49282C0.220643 1.0415 0 1.26215 0 1.53432C0 1.8065 0.220643 2.02714 0.49282 2.02714H1.04356C1.34453 5.38024 0.566673 -3.28628 1.61037 8.34202C1.65059 8.79715 1.89651 9.29103 2.32015 9.62661C1.55635 10.602 2.25423 12.04 3.49667 12.04C4.52789 12.04 5.25522 11.0115 4.90159 10.0374H7.59886C7.24567 11.0103 7.97143 12.04 9.00377 12.04C9.82763 12.04 10.4979 11.3697 10.4979 10.5459C10.4979 9.72203 9.82763 9.05177 9.00377 9.05177H3.50001C3.12565 9.05177 2.79943 8.82592 2.65862 8.49686L10.5345 8.03398C10.7496 8.02136 10.9315 7.87051 10.9837 7.66155L11.9851 3.65634C12.0627 3.34577 11.8276 3.044 11.507 3.044ZM3.49667 11.0544C3.21633 11.0544 2.98823 10.8263 2.98823 10.5459C2.98823 10.2655 3.21633 10.0374 3.49667 10.0374C3.77704 10.0374 4.00515 10.2655 4.00515 10.5459C4.00515 10.8263 3.77704 11.0544 3.49667 11.0544ZM9.00375 11.0544C8.72338 11.0544 8.49528 10.8263 8.49528 10.5459C8.49528 10.2655 8.72338 10.0374 9.00375 10.0374C9.28412 10.0374 9.51222 10.2655 9.51222 10.5459C9.51222 10.8263 9.28412 11.0544 9.00375 11.0544ZM10.1153 7.07129L2.52596 7.5173L2.2129 4.02961H10.8758L10.1153 7.07129Z" fill="#247FD5"/>
</g>
<defs>
<clipPath id="clip0">
<rect width="12" height="12" fill="white" transform="translate(0 0.540771)"/>
</clipPath>
</defs>
</svg>
