<svg width="20" height="14" viewBox="0 0 20 14" fill="none" xmlns="http://www.w3.org/2000/svg">
<path d="M19.9861 1.94664C19.9853 1.38222 19.5259 0.92363 18.9616 0.92363C18.9612 0.92363 18.9607 0.92363 18.9603 0.92363L1.02305 0.948278C0.749414 0.94863 0.492266 1.05554 0.299024 1.24929C0.105821 1.44308 -0.000350692 1.70054 8.7029e-07 1.9741L0.013868 12.0533C0.0142196 12.327 0.121133 12.5841 0.314883 12.7773C0.508281 12.9702 0.765117 13.0764 1.03828 13.0764C1.03875 13.0764 1.03926 13.0764 1.03965 13.0764L18.9769 13.0517C19.5416 13.0509 20.0006 12.5908 19.9999 12.0259L19.9861 1.94664ZM17.8363 1.9496L10.0008 7.39662L2.15 1.97117L17.8363 1.9496ZM13.3143 8.42463L17.9616 12.0287L2.02519 12.0506L6.70081 8.42463C6.92432 8.25123 6.96503 7.92951 6.79167 7.70592C6.61827 7.4824 6.29655 7.4417 6.07296 7.61506L1.03754 11.5201L1.02504 2.43906L9.71033 8.44127C9.79799 8.50185 9.89975 8.53209 10.0015 8.53209C10.1038 8.53209 10.2061 8.5015 10.2939 8.44045L18.9623 2.41452L18.9755 11.5186L13.942 7.6151C13.7186 7.44178 13.3968 7.48244 13.2234 7.70596C13.05 7.92947 13.0907 8.25127 13.3143 8.42463Z" fill="#056DD0"/>
</svg>
